<svg version="1.1" viewBox="0 0 39.82 39.82" xmlns="http://www.w3.org/2000/svg" xmlns:osb="http://www.openswatchbook.org/uri/2009/osb">
  <defs>
    <linearGradient id="linearGradient900" gradientTransform="matrix(0 0 0 0 -61.25 580.3)" osb:paint="solid">
      <stop stop-color="#ededed" offset="0"/>
    </linearGradient>
    <linearGradient id="linearGradient894" gradientTransform="matrix(0 0 0 0 -79.98 482.3)" osb:paint="solid">
      <stop stop-color="#d9d9d9" offset="0"/>
    </linearGradient>
  </defs>
  <g transform="translate(88.7 88.79)">
    <g transform="matrix(1.174 -.3145 .3145 1.174 -183.6 149.1)" fill-rule="evenodd" shape-rendering="auto" stroke-width=".823">
      <g transform="translate(0 -182.4)" stroke-width=".823">
        <path transform="matrix(.2646 0 0 .2646 68.2 0)" d="m285.1 69c-0.8621-0.01607-2.24 0.3832-4.422 1.971-3.037 2.21-5.446 5.28-7.408 8.963 0.7072 8.237-0.958 17.48-3.287 26.98 0.1094 0.0327 0.2155 0.0768 0.3242 0.1113 5.094-8.461 10.47-16.3 16.82-21.74 1.138-3.872 1.562-7.63 0.9941-11.23-0.5603-3.555-1.602-4.601-2.316-4.922v-2e-3c-0.183-0.06937-0.4138-0.1196-0.7012-0.125z" color="#000000" color-rendering="auto" dominant-baseline="auto" fill="url(#linearGradient900)" image-rendering="auto" solid-color="#000000" style="font-feature-settings:normal;font-variant-alternates:normal;font-variant-caps:normal;font-variant-ligatures:normal;font-variant-numeric:normal;font-variant-position:normal;isolation:auto;mix-blend-mode:normal;shape-padding:0;text-decoration-color:#000000;text-decoration-line:none;text-decoration-style:solid;text-indent:0;text-orientation:mixed;text-transform:none;white-space:normal"/>
        <path d="m137.5 17.12c0.2073 0.0067 0.569 0.1607 1.065 0.9715 1.487 2.431 1.058 6.03 0.0951 9.974-0.306-0.05223-0.6098-0.122-0.9209-0.1235h-4e-3c-0.4668 0.0012-0.9262 0.0803-1.377 0.1948-0.9745-3.97-1.42-7.599 0.0765-10.04 0.4961-0.8109 0.8579-0.9649 1.065-0.9715z" color="#000000" color-rendering="auto" dominant-baseline="auto" fill="url(#linearGradient894)" image-rendering="auto" solid-color="#000000" style="font-feature-settings:normal;font-variant-alternates:normal;font-variant-caps:normal;font-variant-ligatures:normal;font-variant-numeric:normal;font-variant-position:normal;isolation:auto;mix-blend-mode:normal;shape-padding:0;text-decoration-color:#000000;text-decoration-line:none;text-decoration-style:solid;text-indent:0;text-orientation:mixed;text-transform:none;white-space:normal"/>
      </g>
      <path d="m137.7-153.5c2.587 0 4.674 2.086 4.674 4.674s-2.086 4.676-4.674 4.676c-2.587 0-4.674-2.088-4.674-4.676s2.086-4.674 4.674-4.674z" color="#000000" color-rendering="auto" dominant-baseline="auto" fill="#ffeb86" image-rendering="auto" solid-color="#000000" style="font-feature-settings:normal;font-variant-alternates:normal;font-variant-caps:normal;font-variant-ligatures:normal;font-variant-numeric:normal;font-variant-position:normal;isolation:auto;mix-blend-mode:normal;shape-padding:0;text-decoration-color:#000000;text-decoration-line:none;text-decoration-style:solid;text-indent:0;text-orientation:mixed;text-transform:none;white-space:normal"/>
      <g stroke-width=".823">
        <g transform="rotate(45 357.9 -57.59)">
          <path transform="matrix(.2646 0 0 .2646 68.2 0)" d="m285.1 69c-0.8621-0.01607-2.24 0.3832-4.422 1.971-3.037 2.21-5.446 5.28-7.408 8.963 0.7072 8.237-0.958 17.48-3.287 26.98 0.1094 0.0327 0.2155 0.0768 0.3242 0.1113 5.094-8.461 10.47-16.3 16.82-21.74 1.138-3.872 1.562-7.63 0.9941-11.23-0.5603-3.555-1.602-4.601-2.316-4.922v-2e-3c-0.183-0.06937-0.4138-0.1196-0.7012-0.125z" color="#000000" color-rendering="auto" dominant-baseline="auto" fill="url(#linearGradient900)" image-rendering="auto" solid-color="#000000" style="font-feature-settings:normal;font-variant-alternates:normal;font-variant-caps:normal;font-variant-ligatures:normal;font-variant-numeric:normal;font-variant-position:normal;isolation:auto;mix-blend-mode:normal;shape-padding:0;text-decoration-color:#000000;text-decoration-line:none;text-decoration-style:solid;text-indent:0;text-orientation:mixed;text-transform:none;white-space:normal"/>
          <path d="m137.5 17.12c0.2073 0.0067 0.569 0.1607 1.065 0.9715 1.487 2.431 1.058 6.03 0.0951 9.974-0.306-0.05223-0.6098-0.122-0.9209-0.1235h-4e-3c-0.4668 0.0012-0.9262 0.0803-1.377 0.1948-0.9745-3.97-1.42-7.599 0.0765-10.04 0.4961-0.8109 0.8579-0.9649 1.065-0.9715z" color="#000000" color-rendering="auto" dominant-baseline="auto" fill="url(#linearGradient894)" image-rendering="auto" solid-color="#000000" style="font-feature-settings:normal;font-variant-alternates:normal;font-variant-caps:normal;font-variant-ligatures:normal;font-variant-numeric:normal;font-variant-position:normal;isolation:auto;mix-blend-mode:normal;shape-padding:0;text-decoration-color:#000000;text-decoration-line:none;text-decoration-style:solid;text-indent:0;text-orientation:mixed;text-transform:none;white-space:normal"/>
        </g>
        <g transform="rotate(90 228.9 -57.59)">
          <path transform="matrix(.2646 0 0 .2646 68.2 0)" d="m285.1 69c-0.8621-0.01607-2.24 0.3832-4.422 1.971-3.037 2.21-5.446 5.28-7.408 8.963 0.7072 8.237-0.958 17.48-3.287 26.98 0.1094 0.0327 0.2155 0.0768 0.3242 0.1113 5.094-8.461 10.47-16.3 16.82-21.74 1.138-3.872 1.562-7.63 0.9941-11.23-0.5603-3.555-1.602-4.601-2.316-4.922v-2e-3c-0.183-0.06937-0.4138-0.1196-0.7012-0.125z" color="#000000" color-rendering="auto" dominant-baseline="auto" fill="url(#linearGradient900)" image-rendering="auto" solid-color="#000000" style="font-feature-settings:normal;font-variant-alternates:normal;font-variant-caps:normal;font-variant-ligatures:normal;font-variant-numeric:normal;font-variant-position:normal;isolation:auto;mix-blend-mode:normal;shape-padding:0;text-decoration-color:#000000;text-decoration-line:none;text-decoration-style:solid;text-indent:0;text-orientation:mixed;text-transform:none;white-space:normal"/>
          <path d="m137.5 17.12c0.2073 0.0067 0.569 0.1607 1.065 0.9715 1.487 2.431 1.058 6.03 0.0951 9.974-0.306-0.05223-0.6098-0.122-0.9209-0.1235h-4e-3c-0.4668 0.0012-0.9262 0.0803-1.377 0.1948-0.9745-3.97-1.42-7.599 0.0765-10.04 0.4961-0.8109 0.8579-0.9649 1.065-0.9715z" color="#000000" color-rendering="auto" dominant-baseline="auto" fill="url(#linearGradient894)" image-rendering="auto" solid-color="#000000" style="font-feature-settings:normal;font-variant-alternates:normal;font-variant-caps:normal;font-variant-ligatures:normal;font-variant-numeric:normal;font-variant-position:normal;isolation:auto;mix-blend-mode:normal;shape-padding:0;text-decoration-color:#000000;text-decoration-line:none;text-decoration-style:solid;text-indent:0;text-orientation:mixed;text-transform:none;white-space:normal"/>
        </g>
        <g transform="rotate(135 175.5 -57.59)">
          <path transform="matrix(.2646 0 0 .2646 68.2 0)" d="m285.1 69c-0.8621-0.01607-2.24 0.3832-4.422 1.971-3.037 2.21-5.446 5.28-7.408 8.963 0.7072 8.237-0.958 17.48-3.287 26.98 0.1094 0.0327 0.2155 0.0768 0.3242 0.1113 5.094-8.461 10.47-16.3 16.82-21.74 1.138-3.872 1.562-7.63 0.9941-11.23-0.5603-3.555-1.602-4.601-2.316-4.922v-2e-3c-0.183-0.06937-0.4138-0.1196-0.7012-0.125z" color="#000000" color-rendering="auto" dominant-baseline="auto" fill="url(#linearGradient900)" image-rendering="auto" solid-color="#000000" style="font-feature-settings:normal;font-variant-alternates:normal;font-variant-caps:normal;font-variant-ligatures:normal;font-variant-numeric:normal;font-variant-position:normal;isolation:auto;mix-blend-mode:normal;shape-padding:0;text-decoration-color:#000000;text-decoration-line:none;text-decoration-style:solid;text-indent:0;text-orientation:mixed;text-transform:none;white-space:normal"/>
          <path d="m137.5 17.12c0.2073 0.0067 0.569 0.1607 1.065 0.9715 1.487 2.431 1.058 6.03 0.0951 9.974-0.306-0.05223-0.6098-0.122-0.9209-0.1235h-4e-3c-0.4668 0.0012-0.9262 0.0803-1.377 0.1948-0.9745-3.97-1.42-7.599 0.0765-10.04 0.4961-0.8109 0.8579-0.9649 1.065-0.9715z" color="#000000" color-rendering="auto" dominant-baseline="auto" fill="url(#linearGradient894)" image-rendering="auto" solid-color="#000000" style="font-feature-settings:normal;font-variant-alternates:normal;font-variant-caps:normal;font-variant-ligatures:normal;font-variant-numeric:normal;font-variant-position:normal;isolation:auto;mix-blend-mode:normal;shape-padding:0;text-decoration-color:#000000;text-decoration-line:none;text-decoration-style:solid;text-indent:0;text-orientation:mixed;text-transform:none;white-space:normal"/>
        </g>
        <g transform="rotate(180 137.7 -57.59)">
          <path transform="matrix(.2646 0 0 .2646 68.2 0)" d="m285.1 69c-0.8621-0.01607-2.24 0.3832-4.422 1.971-3.037 2.21-5.446 5.28-7.408 8.963 0.7072 8.237-0.958 17.48-3.287 26.98 0.1094 0.0327 0.2155 0.0768 0.3242 0.1113 5.094-8.461 10.47-16.3 16.82-21.74 1.138-3.872 1.562-7.63 0.9941-11.23-0.5603-3.555-1.602-4.601-2.316-4.922v-2e-3c-0.183-0.06937-0.4138-0.1196-0.7012-0.125z" color="#000000" color-rendering="auto" dominant-baseline="auto" fill="url(#linearGradient900)" image-rendering="auto" solid-color="#000000" style="font-feature-settings:normal;font-variant-alternates:normal;font-variant-caps:normal;font-variant-ligatures:normal;font-variant-numeric:normal;font-variant-position:normal;isolation:auto;mix-blend-mode:normal;shape-padding:0;text-decoration-color:#000000;text-decoration-line:none;text-decoration-style:solid;text-indent:0;text-orientation:mixed;text-transform:none;white-space:normal"/>
          <path d="m137.5 17.12c0.2073 0.0067 0.569 0.1607 1.065 0.9715 1.487 2.431 1.058 6.03 0.0951 9.974-0.306-0.05223-0.6098-0.122-0.9209-0.1235h-4e-3c-0.4668 0.0012-0.9262 0.0803-1.377 0.1948-0.9745-3.97-1.42-7.599 0.0765-10.04 0.4961-0.8109 0.8579-0.9649 1.065-0.9715z" color="#000000" color-rendering="auto" dominant-baseline="auto" fill="url(#linearGradient894)" image-rendering="auto" solid-color="#000000" style="font-feature-settings:normal;font-variant-alternates:normal;font-variant-caps:normal;font-variant-ligatures:normal;font-variant-numeric:normal;font-variant-position:normal;isolation:auto;mix-blend-mode:normal;shape-padding:0;text-decoration-color:#000000;text-decoration-line:none;text-decoration-style:solid;text-indent:0;text-orientation:mixed;text-transform:none;white-space:normal"/>
        </g>
        <g transform="rotate(225 99.95 -57.59)">
          <path transform="matrix(.2646 0 0 .2646 68.2 0)" d="m285.1 69c-0.8621-0.01607-2.24 0.3832-4.422 1.971-3.037 2.21-5.446 5.28-7.408 8.963 0.7072 8.237-0.958 17.48-3.287 26.98 0.1094 0.0327 0.2155 0.0768 0.3242 0.1113 5.094-8.461 10.47-16.3 16.82-21.74 1.138-3.872 1.562-7.63 0.9941-11.23-0.5603-3.555-1.602-4.601-2.316-4.922v-2e-3c-0.183-0.06937-0.4138-0.1196-0.7012-0.125z" color="#000000" color-rendering="auto" dominant-baseline="auto" fill="url(#linearGradient900)" image-rendering="auto" solid-color="#000000" style="font-feature-settings:normal;font-variant-alternates:normal;font-variant-caps:normal;font-variant-ligatures:normal;font-variant-numeric:normal;font-variant-position:normal;isolation:auto;mix-blend-mode:normal;shape-padding:0;text-decoration-color:#000000;text-decoration-line:none;text-decoration-style:solid;text-indent:0;text-orientation:mixed;text-transform:none;white-space:normal"/>
          <path d="m137.5 17.12c0.2073 0.0067 0.569 0.1607 1.065 0.9715 1.487 2.431 1.058 6.03 0.0951 9.974-0.306-0.05223-0.6098-0.122-0.9209-0.1235h-4e-3c-0.4668 0.0012-0.9262 0.0803-1.377 0.1948-0.9745-3.97-1.42-7.599 0.0765-10.04 0.4961-0.8109 0.8579-0.9649 1.065-0.9715z" color="#000000" color-rendering="auto" dominant-baseline="auto" fill="url(#linearGradient894)" image-rendering="auto" solid-color="#000000" style="font-feature-settings:normal;font-variant-alternates:normal;font-variant-caps:normal;font-variant-ligatures:normal;font-variant-numeric:normal;font-variant-position:normal;isolation:auto;mix-blend-mode:normal;shape-padding:0;text-decoration-color:#000000;text-decoration-line:none;text-decoration-style:solid;text-indent:0;text-orientation:mixed;text-transform:none;white-space:normal"/>
        </g>
        <g transform="rotate(-90 46.52 -57.59)">
          <path transform="matrix(.2646 0 0 .2646 68.2 0)" d="m285.1 69c-0.8621-0.01607-2.24 0.3832-4.422 1.971-3.037 2.21-5.446 5.28-7.408 8.963 0.7072 8.237-0.958 17.48-3.287 26.98 0.1094 0.0327 0.2155 0.0768 0.3242 0.1113 5.094-8.461 10.47-16.3 16.82-21.74 1.138-3.872 1.562-7.63 0.9941-11.23-0.5603-3.555-1.602-4.601-2.316-4.922v-2e-3c-0.183-0.06937-0.4138-0.1196-0.7012-0.125z" color="#000000" color-rendering="auto" dominant-baseline="auto" fill="url(#linearGradient900)" image-rendering="auto" solid-color="#000000" style="font-feature-settings:normal;font-variant-alternates:normal;font-variant-caps:normal;font-variant-ligatures:normal;font-variant-numeric:normal;font-variant-position:normal;isolation:auto;mix-blend-mode:normal;shape-padding:0;text-decoration-color:#000000;text-decoration-line:none;text-decoration-style:solid;text-indent:0;text-orientation:mixed;text-transform:none;white-space:normal"/>
          <path d="m137.5 17.12c0.2073 0.0067 0.569 0.1607 1.065 0.9715 1.487 2.431 1.058 6.03 0.0951 9.974-0.306-0.05223-0.6098-0.122-0.9209-0.1235h-4e-3c-0.4668 0.0012-0.9262 0.0803-1.377 0.1948-0.9745-3.97-1.42-7.599 0.0765-10.04 0.4961-0.8109 0.8579-0.9649 1.065-0.9715z" color="#000000" color-rendering="auto" dominant-baseline="auto" fill="url(#linearGradient894)" image-rendering="auto" solid-color="#000000" style="font-feature-settings:normal;font-variant-alternates:normal;font-variant-caps:normal;font-variant-ligatures:normal;font-variant-numeric:normal;font-variant-position:normal;isolation:auto;mix-blend-mode:normal;shape-padding:0;text-decoration-color:#000000;text-decoration-line:none;text-decoration-style:solid;text-indent:0;text-orientation:mixed;text-transform:none;white-space:normal"/>
        </g>
        <g transform="rotate(-45 -82.47 -57.59)">
          <path transform="matrix(.2646 0 0 .2646 68.2 0)" d="m285.1 69c-0.8621-0.01607-2.24 0.3832-4.422 1.971-3.037 2.21-5.446 5.28-7.408 8.963 0.7072 8.237-0.958 17.48-3.287 26.98 0.1094 0.0327 0.2155 0.0768 0.3242 0.1113 5.094-8.461 10.47-16.3 16.82-21.74 1.138-3.872 1.562-7.63 0.9941-11.23-0.5603-3.555-1.602-4.601-2.316-4.922v-2e-3c-0.183-0.06937-0.4138-0.1196-0.7012-0.125z" color="#000000" color-rendering="auto" dominant-baseline="auto" fill="url(#linearGradient900)" image-rendering="auto" solid-color="#000000" style="font-feature-settings:normal;font-variant-alternates:normal;font-variant-caps:normal;font-variant-ligatures:normal;font-variant-numeric:normal;font-variant-position:normal;isolation:auto;mix-blend-mode:normal;shape-padding:0;text-decoration-color:#000000;text-decoration-line:none;text-decoration-style:solid;text-indent:0;text-orientation:mixed;text-transform:none;white-space:normal"/>
          <path d="m137.5 17.12c0.2073 0.0067 0.569 0.1607 1.065 0.9715 1.487 2.431 1.058 6.03 0.0951 9.974-0.306-0.05223-0.6098-0.122-0.9209-0.1235h-4e-3c-0.4668 0.0012-0.9262 0.0803-1.377 0.1948-0.9745-3.97-1.42-7.599 0.0765-10.04 0.4961-0.8109 0.8579-0.9649 1.065-0.9715z" color="#000000" color-rendering="auto" dominant-baseline="auto" fill="url(#linearGradient894)" image-rendering="auto" solid-color="#000000" style="font-feature-settings:normal;font-variant-alternates:normal;font-variant-caps:normal;font-variant-ligatures:normal;font-variant-numeric:normal;font-variant-position:normal;isolation:auto;mix-blend-mode:normal;shape-padding:0;text-decoration-color:#000000;text-decoration-line:none;text-decoration-style:solid;text-indent:0;text-orientation:mixed;text-transform:none;white-space:normal"/>
        </g>
      </g>
    </g>
  </g>
</svg>
