<?xml version="1.0" encoding="UTF-8"?>
<svg version="1.1" viewBox="0 0 10 10.01" xmlns="http://www.w3.org/2000/svg" xmlns:osb="http://www.openswatchbook.org/uri/2009/osb">
  <defs>
    <linearGradient id="linearGradient1296" gradientTransform="matrix(.004487 -.004487 .004487 .004487 -148.3 -723.8)" osb:paint="solid">
      <stop stop-color="#4cb5dd" offset="0"/>
    </linearGradient>
  </defs>
  <g transform="translate(-8.913e-6 -287)">
    <path d="m8.979 296.3q-0.3008 0.3008-0.629 0.4832-0.3098 0.1824-0.6654 0.1914-0.3282-2e-5 -0.8934-0.2188-0.5561-0.2097-1.249-0.5925-0.6836-0.392-1.386-0.9116-0.702-0.5195-1.313-1.13-0.6108-0.6108-1.13-1.313-0.5197-0.7018-0.9025-1.376-0.3829-0.6928-0.6016-1.258-0.2097-0.5743-0.2097-0.9025-1e-13 -0.3464 0.1823-0.6563 0.1824-0.3281 0.4832-0.629 0.2461-0.2461 0.547-0.474 0.31-0.237 0.629-0.4649 0.05441-0.0367 0.1094-0.0547 0.05441-0.0366 0.1184-0.0273 0.164 0.0182 0.2643 0.1185 0.00888 9e-3 0.00932 0.0271 0.00888 9e-3 0.02735 0.0273l1.531 2.133q0.07319 0.091 0.07291 0.237 0 0.1278-0.1093 0.2371l-0.06373 0.0637q-0.237 0.237-0.6107 0.4102-0.3646 0.1641-0.9207 0.392 0.06382 0.4467 0.4649 1.103 0.4103 0.6472 1.14 1.376 0.7293 0.7293 1.376 1.14 0.6472 0.392 1.103 0.4649 0.1368-0.3373 0.2917-0.6199 0.1459-0.2917 0.2552-0.4923 0.05471-0.0911 0.1277-0.2187 0.06373-0.1368 0.1731-0.2462 0.1002-0.1002 0.2643-0.1186 0.1184-9e-3 0.2278 0.0637l2.142 1.541q0.00883 9e-3 0.01818 0.0181 0.01774 0 0.03622 0.0185 0.1094 0.1094 0.1094 0.2552 0 0.1094-0.08208 0.2279-0.2279 0.319-0.4649 0.629-0.2278 0.3009-0.474 0.547z"/>
  </g>
</svg>
