<?xml version="1.0" encoding="UTF-8"?>
<svg width="113.8mm" height="14.21mm" version="1.1" viewBox="0 0 113.8 14.21" xmlns="http://www.w3.org/2000/svg" xmlns:osb="http://www.openswatchbook.org/uri/2009/osb" xmlns:xlink="http://www.w3.org/1999/xlink">
  <defs>
    <linearGradient id="linearGradient1296" gradientTransform="matrix(.01347 0 0 .01347 17.75 276.2)" osb:paint="solid">
      <stop stop-color="#4cb5dd" offset="0"/>
    </linearGradient>
    <linearGradient id="linearGradient1849" x1="37.77" x2="87.16" y1="86.98" y2="86.98" gradientTransform="translate(18.1 88.64)" gradientUnits="userSpaceOnUse" xlink:href="#linearGradient1415"/>
    <linearGradient id="linearGradient1415" gradientTransform="translate(-158.5 553.7)" osb:paint="solid">
      <stop stop-color="#6f6a60" offset="0"/>
    </linearGradient>
    <linearGradient id="linearGradient1851" x1="37.77" x2="87.16" y1="86.98" y2="86.98" gradientTransform="matrix(2.982 0 0 3.78 224.8 374.1)" gradientUnits="userSpaceOnUse" xlink:href="#linearGradient1415"/>
    <linearGradient id="linearGradient1853" x1="37.77" x2="87.16" y1="86.98" y2="86.98" gradientTransform="matrix(.7538 0 0 1 42.32 88.64)" gradientUnits="userSpaceOnUse" xlink:href="#linearGradient1415"/>
    <linearGradient id="linearGradient1855" x1="37.77" x2="87.16" y1="86.98" y2="86.98" gradientTransform="translate(10.15 88.64)" gradientUnits="userSpaceOnUse" xlink:href="#linearGradient1415"/>
  </defs>
  <g transform="translate(-48.96 -141.7)">
    <g transform="matrix(1.215 0 0 1.215 -17.84 -64.56)" stroke-width=".823">
      <g fill="url(#linearGradient1296)">
        <path d="m54.97 179.1 0.9463-0.5678q0.9993 1.84 2.309 1.84 0.5602 0 1.052-0.2574 0.4921-0.265 0.7495-0.7041t0.2574-0.9312q0-0.5602-0.3785-1.098-0.5224-0.7419-1.908-1.787-1.393-1.052-1.734-1.522-0.5905-0.7874-0.5905-1.703 0-0.7268 0.3483-1.325 0.3483-0.5981 0.9766-0.9388 0.6359-0.3483 1.378-0.3483 0.7874 0 1.469 0.3937 0.6889 0.3861 1.454 1.431l-0.9085 0.6889q-0.6284-0.8328-1.075-1.098-0.4391-0.265-0.9615-0.265-0.6738 0-1.105 0.4088-0.424 0.4088-0.424 1.007 0 0.3634 0.1514 0.7041 0.1514 0.3407 0.5527 0.7419 0.2196 0.212 1.438 1.113 1.446 1.067 1.984 1.9t0.5375 1.673q0 1.211-0.9236 2.105-0.9161 0.8934-2.233 0.8934-1.014 0-1.84-0.5375-0.8252-0.5451-1.522-1.817z"/>
        <path d="m63.69 170.1h1.113v11.14h-1.113z"/>
        <path d="m66.85 181.2 1.582-11.14h0.1817l4.527 9.138 4.482-9.138h0.1817l1.597 11.14h-1.098l-1.09-7.964-3.937 7.964h-0.2801l-3.99-8.025-1.083 8.025z"/>
        <path d="m81.62 170.1h2.218q1.908 0 2.574 0.1666 0.9539 0.2347 1.56 0.969 0.6057 0.7268 0.6057 1.832 0 1.113-0.5905 1.84-0.5905 0.7192-1.628 0.969-0.7571 0.1817-2.831 0.1817h-0.7949v5.178h-1.113zm1.113 1.083v3.785l1.885 0.0227q1.143 0 1.673-0.2044 0.53-0.212 0.8328-0.6738 0.3028-0.4694 0.3028-1.045 0-0.5602-0.3028-1.022-0.3028-0.4694-0.8025-0.6662-0.4921-0.1968-1.62-0.1968z"/>
        <path d="m90.8 170.1h1.12v10.06h4.277v1.075h-5.398z"/>
        <path d="m97.98 170.1h6.382v1.098h-5.269v3.483h5.224v1.09h-5.224v4.368h5.224v1.098h-6.337z"/>
      </g>
      <path d="m109.7 170.1h1.287l2.847 4.588 2.801-4.588h1.287l-3.528 5.814v5.322h-1.098v-5.322z" fill="url(#linearGradient1849)"/>
      <path transform="matrix(.2646 0 0 .2646 -21.23 -10.34)" d="m543.9 680.8c-3.101 0-5.982 0.9825-8.646 2.947-2.664 1.946-4.772 4.645-6.322 8.098-1.535 3.453-2.303 7.2-2.303 11.24 0 6.066 1.693 11.23 5.08 15.51 3.387 4.273 7.541 6.41 12.46 6.41 4.862 0 8.978-2.145 12.35-6.438 3.387-4.292 5.08-9.518 5.08-15.68 0-6.219-1.693-11.46-5.08-15.71-3.387-4.254-7.594-6.381-12.62-6.381zm0.1621 4.119c2.347 0 4.566 0.8102 6.658 2.432 2.092 1.621 3.71 3.787 4.855 6.496 1.159 2.69 1.74 5.705 1.74 9.043 0 3.357-0.5811 6.409-1.74 9.156-1.145 2.747-2.749 4.911-4.812 6.494-2.05 1.583-4.284 2.375-6.701 2.375-3.619 0-6.714-1.717-9.287-5.15-2.559-3.453-3.84-7.678-3.84-12.68 0-3.376 0.5809-6.439 1.74-9.186 1.159-2.747 2.772-4.931 4.836-6.553 2.064-1.621 4.247-2.432 6.551-2.432z" fill="url(#linearGradient1851)"/>
      <path d="m137.2 171.9-0.8624 0.8176c-0.4385-0.6107-0.9197-1.073-1.444-1.385-0.5204-0.318-1.028-0.477-1.524-0.477-0.6167 0-1.205 0.2145-1.765 0.6435-0.5561 0.429-0.9874 1.012-1.294 1.749-0.3066 0.7318-0.4598 1.507-0.4598 2.324 0 0.8378 0.1586 1.635 0.4759 2.392 0.3173 0.752 0.7557 1.345 1.315 1.779 0.5597 0.429 1.173 0.6435 1.839 0.6435 0.8092 0 1.494-0.323 2.053-0.9691 0.5597-0.646 0.8912-1.484 0.9946-2.513h-2.452v-1.075h3.618c-8e-3 1.721-0.3938 3.089-1.159 4.103-0.7609 1.009-1.781 1.514-3.059 1.514-1.552 0-2.781-0.7016-3.687-2.105-0.6963-1.08-1.044-2.329-1.044-3.748 0-1.055 0.1998-2.037 0.5992-2.945s0.9474-1.618 1.644-2.127c0.6962-0.5148 1.484-0.7722 2.363-0.7722 0.7115 0 1.381 0.1716 2.009 0.5148 0.6278 0.3382 1.24 0.8832 1.838 1.635z" fill="url(#linearGradient1853)"/>
      <path d="m143.4 170.1 5.194 11.14h-1.196l-1.749-3.664h-4.8l-1.741 3.664h-1.242l5.262-11.14zm-0.1363 2.362-1.915 4.035h3.808z" fill="url(#linearGradient1855)"/>
    </g>
  </g>
</svg>
