<?xml version="1.0" encoding="UTF-8"?>
<svg version="1.1" viewBox="0 0 40.5 23.68" xmlns="http://www.w3.org/2000/svg">
  <g transform="translate(.008076 -273.3)">
    <g transform="translate(15.17,218.7)">
      <g class="simple" transform="matrix(.7308 0 0 .7308 -70.01 40.05)">
        <path d="m75.03 31.28 1.15-0.6899q1.214 2.235 2.806 2.235 0.6807 0 1.279-0.3128 0.5979-0.322 0.9107-0.8555t0.3128-1.131q0-0.6807-0.4599-1.334-0.6347-0.9015-2.318-2.171-1.693-1.279-2.107-1.849-0.7175-0.9567-0.7175-2.07 0-0.8831 0.4231-1.61 0.4231-0.7267 1.187-1.141 0.7727-0.4232 1.674-0.4232 0.9567 0 1.785 0.4783 0.8371 0.4691 1.766 1.739l-1.104 0.8371q-0.7635-1.012-1.306-1.334-0.5335-0.322-1.168-0.322-0.8187 0-1.343 0.4967-0.5151 0.4967-0.5151 1.223 0 0.4415 0.184 0.8555t0.6715 0.9015q0.2668 0.2576 1.748 1.352 1.757 1.297 2.41 2.309t0.6531 2.033q0 1.472-1.122 2.557-1.113 1.085-2.714 1.085-1.233 0-2.235-0.6531-1.003-0.6623-1.849-2.208z"/>
        <path d="m85.26 20.27h1.352v13.53h-1.352z"/>
        <path d="m88.66 33.8 1.923-13.53h0.2208l5.501 11.1 5.446-11.1h0.2208l1.941 13.53h-1.334l-1.325-9.677-4.783 9.677h-0.3404l-4.848-9.751-1.315 9.751z"/>
        <path d="m105.4 20.27h2.695q2.318 0 3.128 0.2024 1.159 0.2852 1.895 1.177 0.7359 0.8831 0.7359 2.226 0 1.352-0.7175 2.235-0.7175 0.8739-1.978 1.177-0.9199 0.2208-3.44 0.2208h-0.9659v6.292h-1.352zm1.352 1.315v4.599l2.291 0.02758q1.389 0 2.033-0.2484 0.6439-0.2576 1.012-0.8187 0.368-0.5703 0.368-1.269 0-0.6807-0.368-1.242-0.368-0.5703-0.9751-0.8095-0.5979-0.2392-1.969-0.2392z"/>
        <path d="m115 20.27h1.361v12.23h5.197v1.306h-6.559z"/>
        <path d="m122.7 20.27h7.755v1.334h-6.402v4.231h5.822v1.325h-5.822v5.308h6.347v1.334h-7.699z"/>
      </g>
      <g class="yoga" transform="matrix(.7308 0 0 .7308 -110.1 53.34)">
        <path d="m132.4 20.27h1.564l3.459 5.575 3.404-5.575h1.564l-4.287 7.065v6.467h-1.334v-6.467z"/>
        <path d="m149.6 19.93c-0.9968 0-1.923 0.3159-2.78 0.9475-0.8565 0.6255-1.534 1.493-2.033 2.603-0.4936 1.11-0.7403 2.315-0.7403 3.615 0 1.95 0.5444 3.612 1.633 4.986 1.089 1.374 2.424 2.061 4.007 2.061 1.563 0 2.886-0.6897 3.97-2.07 1.089-1.38 1.633-3.06 1.633-5.041 0-1.999-0.5444-3.683-1.633-5.05-1.089-1.368-2.441-2.051-4.057-2.051zm0.0521 1.324c0.7544 0 1.468 0.2605 2.14 0.7817 0.6726 0.5213 1.193 1.218 1.561 2.088 0.3727 0.8647 0.5595 1.834 0.5595 2.907 0 1.079-0.1868 2.061-0.5595 2.944-0.3682 0.8831-0.8836 1.579-1.547 2.088-0.659 0.509-1.377 0.7635-2.154 0.7635-1.163 0-2.159-0.5519-2.986-1.656-0.8226-1.11-1.234-2.468-1.234-4.075 0-1.085 0.1868-2.07 0.5594-2.953 0.3727-0.8831 0.8912-1.585 1.555-2.107 0.6635-0.5213 1.365-0.7817 2.106-0.7817z"/>
        <path d="m168.8 22.54-1.048 0.9935c-0.5328-0.742-1.118-1.303-1.754-1.683-0.6324-0.3864-1.25-0.5795-1.852-0.5795-0.7493 0-1.464 0.2606-2.144 0.7819-0.6757 0.5213-1.2 1.23-1.572 2.125-0.3725 0.8892-0.5588 1.831-0.5588 2.824 0 1.018 0.1928 1.987 0.5782 2.907 0.3855 0.9138 0.9182 1.634 1.598 2.162 0.68 0.5213 1.425 0.7819 2.235 0.7819 0.9832 0 1.815-0.3925 2.495-1.177 0.68-0.785 1.083-1.803 1.208-3.054h-2.979v-1.306h4.396c-0.01 2.091-0.4784 3.753-1.408 4.986-0.9246 1.227-2.164 1.84-3.717 1.84-1.886 0-3.379-0.8524-4.48-2.557-0.846-1.312-1.269-2.83-1.269-4.553 0-1.282 0.2427-2.474 0.7281-3.578s1.151-1.965 1.997-2.585c0.846-0.6255 1.803-0.9383 2.871-0.9383 0.8645 0 1.678 0.2085 2.441 0.6255 0.7628 0.4109 1.507 1.073 2.233 1.987z"/>
        <path d="m177.7 20.27 6.31 13.53h-1.453l-2.125-4.452h-5.832l-2.116 4.452h-1.509l6.393-13.53zm-0.1656 2.87-2.327 4.903h4.627z"/>
      </g>
    </g>
  </g>
</svg>
